<mxfile host="app.diagrams.net" modified="2023-07-27T16:48:28.766Z" agent="Mozilla/5.0 (Windows NT 10.0; Win64; x64) AppleWebKit/537.36 (KHTML, like Gecko) Chrome/114.0.0.0 Safari/537.36" etag="77VWmn9n1ZUeTmOCzKNs" version="21.6.5" type="github">
  <diagram name="Page-1" id="0783ab3e-0a74-02c8-0abd-f7b4e66b4bec">
    <mxGraphModel dx="2109" dy="672" grid="1" gridSize="10" guides="1" tooltips="1" connect="1" arrows="1" fold="1" page="1" pageScale="1" pageWidth="850" pageHeight="1100" background="none" math="0" shadow="0">
      <root>
        <mxCell id="0" />
        <mxCell id="1" parent="0" />
        <mxCell id="ZxcZOkYqdb5yOeNDkM1k-41" value="" style="edgeStyle=orthogonalEdgeStyle;rounded=0;orthogonalLoop=1;jettySize=auto;html=1;" edge="1" parent="1" source="ZxcZOkYqdb5yOeNDkM1k-42" target="ZxcZOkYqdb5yOeNDkM1k-43">
          <mxGeometry relative="1" as="geometry" />
        </mxCell>
        <mxCell id="ZxcZOkYqdb5yOeNDkM1k-42" value="" style="ellipse;fillColor=strokeColor;html=1;" vertex="1" parent="1">
          <mxGeometry x="346.5" y="20" width="30" height="30" as="geometry" />
        </mxCell>
        <mxCell id="ZxcZOkYqdb5yOeNDkM1k-43" value="Staff/Admin Select" style="rounded=1;whiteSpace=wrap;html=1;arcSize=40;fontColor=#000000;fillColor=#ffffc0;strokeColor=#ff0000;" vertex="1" parent="1">
          <mxGeometry x="301.5" y="90" width="120" height="40" as="geometry" />
        </mxCell>
        <mxCell id="ZxcZOkYqdb5yOeNDkM1k-44" value="" style="edgeStyle=orthogonalEdgeStyle;html=1;verticalAlign=bottom;endArrow=open;endSize=8;strokeColor=#ff0000;rounded=0;entryX=0.5;entryY=0;entryDx=0;entryDy=0;" edge="1" parent="1" source="ZxcZOkYqdb5yOeNDkM1k-43" target="ZxcZOkYqdb5yOeNDkM1k-45">
          <mxGeometry relative="1" as="geometry">
            <mxPoint x="435" y="200" as="targetPoint" />
          </mxGeometry>
        </mxCell>
        <mxCell id="ZxcZOkYqdb5yOeNDkM1k-45" value="" style="whiteSpace=wrap;html=1;rounded=0;shadow=0;comic=0;labelBackgroundColor=none;strokeWidth=1;fillColor=#000000;fontFamily=Verdana;fontSize=12;align=center;rotation=0;" vertex="1" parent="1">
          <mxGeometry x="288" y="200" width="147" height="10" as="geometry" />
        </mxCell>
        <mxCell id="ZxcZOkYqdb5yOeNDkM1k-46" value="Search And Find Truck" style="rounded=1;whiteSpace=wrap;html=1;arcSize=40;fontColor=#000000;fillColor=#ffffc0;strokeColor=#ff0000;" vertex="1" parent="1">
          <mxGeometry x="700" y="290" width="120" height="40" as="geometry" />
        </mxCell>
        <mxCell id="ZxcZOkYqdb5yOeNDkM1k-47" value="Delete Truck" style="rounded=1;whiteSpace=wrap;html=1;arcSize=40;fontColor=#000000;fillColor=#ffffc0;strokeColor=#ff0000;" vertex="1" parent="1">
          <mxGeometry x="460" y="290" width="120" height="40" as="geometry" />
        </mxCell>
        <mxCell id="ZxcZOkYqdb5yOeNDkM1k-48" value="Modify Truck" style="rounded=1;whiteSpace=wrap;html=1;arcSize=40;fontColor=#000000;fillColor=#ffffc0;strokeColor=#ff0000;" vertex="1" parent="1">
          <mxGeometry x="160" y="290" width="120" height="40" as="geometry" />
        </mxCell>
        <mxCell id="ZxcZOkYqdb5yOeNDkM1k-49" value="Add New Truck" style="rounded=1;whiteSpace=wrap;html=1;arcSize=40;fontColor=#000000;fillColor=#ffffc0;strokeColor=#ff0000;" vertex="1" parent="1">
          <mxGeometry x="-150" y="290" width="120" height="40" as="geometry" />
        </mxCell>
        <mxCell id="ZxcZOkYqdb5yOeNDkM1k-50" value="" style="endArrow=classic;html=1;rounded=0;" edge="1" parent="1" source="ZxcZOkYqdb5yOeNDkM1k-45" target="ZxcZOkYqdb5yOeNDkM1k-46">
          <mxGeometry width="50" height="50" relative="1" as="geometry">
            <mxPoint x="410" y="400" as="sourcePoint" />
            <mxPoint x="460" y="350" as="targetPoint" />
          </mxGeometry>
        </mxCell>
        <mxCell id="ZxcZOkYqdb5yOeNDkM1k-51" value="" style="endArrow=classic;html=1;rounded=0;entryX=0.5;entryY=0;entryDx=0;entryDy=0;" edge="1" parent="1" source="ZxcZOkYqdb5yOeNDkM1k-45" target="ZxcZOkYqdb5yOeNDkM1k-47">
          <mxGeometry width="50" height="50" relative="1" as="geometry">
            <mxPoint x="410" y="400" as="sourcePoint" />
            <mxPoint x="460" y="350" as="targetPoint" />
          </mxGeometry>
        </mxCell>
        <mxCell id="ZxcZOkYqdb5yOeNDkM1k-52" value="" style="endArrow=classic;html=1;rounded=0;entryX=0.5;entryY=0;entryDx=0;entryDy=0;" edge="1" parent="1" source="ZxcZOkYqdb5yOeNDkM1k-45" target="ZxcZOkYqdb5yOeNDkM1k-48">
          <mxGeometry width="50" height="50" relative="1" as="geometry">
            <mxPoint x="410" y="400" as="sourcePoint" />
            <mxPoint x="460" y="350" as="targetPoint" />
          </mxGeometry>
        </mxCell>
        <mxCell id="ZxcZOkYqdb5yOeNDkM1k-53" value="" style="endArrow=classic;html=1;rounded=0;entryX=0.5;entryY=0;entryDx=0;entryDy=0;" edge="1" parent="1" source="ZxcZOkYqdb5yOeNDkM1k-45" target="ZxcZOkYqdb5yOeNDkM1k-49">
          <mxGeometry width="50" height="50" relative="1" as="geometry">
            <mxPoint x="410" y="400" as="sourcePoint" />
            <mxPoint x="460" y="350" as="targetPoint" />
          </mxGeometry>
        </mxCell>
        <mxCell id="ZxcZOkYqdb5yOeNDkM1k-54" value="Trucks" style="html=1;whiteSpace=wrap;" vertex="1" parent="1">
          <mxGeometry x="-210" y="392.5" width="110" height="50" as="geometry" />
        </mxCell>
        <mxCell id="ZxcZOkYqdb5yOeNDkM1k-55" value="" style="endArrow=classic;html=1;rounded=0;entryX=0.5;entryY=0;entryDx=0;entryDy=0;exitX=0.5;exitY=1;exitDx=0;exitDy=0;" edge="1" parent="1" source="ZxcZOkYqdb5yOeNDkM1k-49" target="ZxcZOkYqdb5yOeNDkM1k-54">
          <mxGeometry width="50" height="50" relative="1" as="geometry">
            <mxPoint x="30" y="360" as="sourcePoint" />
            <mxPoint x="155" y="310" as="targetPoint" />
          </mxGeometry>
        </mxCell>
        <mxCell id="ZxcZOkYqdb5yOeNDkM1k-56" value="Add All Truck&#39;s attributes&amp;nbsp;" style="shape=note2;boundedLbl=1;whiteSpace=wrap;html=1;size=25;verticalAlign=top;align=center;" vertex="1" parent="1">
          <mxGeometry x="-50" y="385" width="105" height="65" as="geometry" />
        </mxCell>
        <mxCell id="ZxcZOkYqdb5yOeNDkM1k-57" value="" style="endArrow=none;dashed=1;html=1;dashPattern=1 3;strokeWidth=2;rounded=0;entryX=0;entryY=0;entryDx=47.5;entryDy=0;entryPerimeter=0;exitX=0.5;exitY=1;exitDx=0;exitDy=0;" edge="1" parent="1" source="ZxcZOkYqdb5yOeNDkM1k-49" target="ZxcZOkYqdb5yOeNDkM1k-56">
          <mxGeometry width="50" height="50" relative="1" as="geometry">
            <mxPoint x="40" y="330" as="sourcePoint" />
            <mxPoint x="155" y="400" as="targetPoint" />
          </mxGeometry>
        </mxCell>
        <mxCell id="ZxcZOkYqdb5yOeNDkM1k-58" value="" style="endArrow=none;dashed=1;html=1;dashPattern=1 3;strokeWidth=2;rounded=0;entryX=0;entryY=0.5;entryDx=0;entryDy=0;entryPerimeter=0;exitX=1;exitY=0.5;exitDx=0;exitDy=0;" edge="1" parent="1" source="ZxcZOkYqdb5yOeNDkM1k-54" target="ZxcZOkYqdb5yOeNDkM1k-56">
          <mxGeometry width="50" height="50" relative="1" as="geometry">
            <mxPoint x="105" y="450" as="sourcePoint" />
            <mxPoint x="155" y="400" as="targetPoint" />
          </mxGeometry>
        </mxCell>
        <mxCell id="ZxcZOkYqdb5yOeNDkM1k-59" value="Trucks" style="html=1;whiteSpace=wrap;" vertex="1" parent="1">
          <mxGeometry x="90" y="392.5" width="110" height="50" as="geometry" />
        </mxCell>
        <mxCell id="ZxcZOkYqdb5yOeNDkM1k-60" value="" style="endArrow=classic;html=1;rounded=0;entryX=0.5;entryY=0;entryDx=0;entryDy=0;exitX=0.5;exitY=1;exitDx=0;exitDy=0;" edge="1" parent="1" source="ZxcZOkYqdb5yOeNDkM1k-48" target="ZxcZOkYqdb5yOeNDkM1k-59">
          <mxGeometry width="50" height="50" relative="1" as="geometry">
            <mxPoint x="330" y="463" as="sourcePoint" />
            <mxPoint x="445" y="443" as="targetPoint" />
          </mxGeometry>
        </mxCell>
        <mxCell id="ZxcZOkYqdb5yOeNDkM1k-61" value="&lt;font style=&quot;font-size: 10px;&quot;&gt;selected&amp;nbsp;Truck by id and able modification&lt;/font&gt;" style="shape=note2;boundedLbl=1;whiteSpace=wrap;html=1;size=25;verticalAlign=top;align=center;" vertex="1" parent="1">
          <mxGeometry x="250" y="377.5" width="105" height="65" as="geometry" />
        </mxCell>
        <mxCell id="ZxcZOkYqdb5yOeNDkM1k-62" value="" style="endArrow=none;dashed=1;html=1;dashPattern=1 3;strokeWidth=2;rounded=0;entryX=0;entryY=0;entryDx=47.5;entryDy=0;entryPerimeter=0;exitX=0.5;exitY=1;exitDx=0;exitDy=0;" edge="1" parent="1" source="ZxcZOkYqdb5yOeNDkM1k-48" target="ZxcZOkYqdb5yOeNDkM1k-61">
          <mxGeometry width="50" height="50" relative="1" as="geometry">
            <mxPoint x="330" y="463" as="sourcePoint" />
            <mxPoint x="445" y="533" as="targetPoint" />
          </mxGeometry>
        </mxCell>
        <mxCell id="ZxcZOkYqdb5yOeNDkM1k-63" value="" style="endArrow=none;dashed=1;html=1;dashPattern=1 3;strokeWidth=2;rounded=0;entryX=0;entryY=0.5;entryDx=0;entryDy=0;entryPerimeter=0;exitX=1;exitY=0.5;exitDx=0;exitDy=0;" edge="1" parent="1" source="ZxcZOkYqdb5yOeNDkM1k-59" target="ZxcZOkYqdb5yOeNDkM1k-61">
          <mxGeometry width="50" height="50" relative="1" as="geometry">
            <mxPoint x="395" y="583" as="sourcePoint" />
            <mxPoint x="445" y="533" as="targetPoint" />
          </mxGeometry>
        </mxCell>
        <mxCell id="ZxcZOkYqdb5yOeNDkM1k-64" value="Trucks" style="html=1;whiteSpace=wrap;" vertex="1" parent="1">
          <mxGeometry x="410" y="392.5" width="110" height="50" as="geometry" />
        </mxCell>
        <mxCell id="ZxcZOkYqdb5yOeNDkM1k-65" value="" style="endArrow=classic;html=1;rounded=0;entryX=0.5;entryY=0;entryDx=0;entryDy=0;exitX=0.5;exitY=1;exitDx=0;exitDy=0;" edge="1" parent="1" source="ZxcZOkYqdb5yOeNDkM1k-47" target="ZxcZOkYqdb5yOeNDkM1k-64">
          <mxGeometry width="50" height="50" relative="1" as="geometry">
            <mxPoint x="530" y="450" as="sourcePoint" />
            <mxPoint x="645" y="430" as="targetPoint" />
          </mxGeometry>
        </mxCell>
        <mxCell id="ZxcZOkYqdb5yOeNDkM1k-66" value="Delete Truck Info" style="shape=note2;boundedLbl=1;whiteSpace=wrap;html=1;size=25;verticalAlign=top;align=center;" vertex="1" parent="1">
          <mxGeometry x="580" y="385" width="105" height="65" as="geometry" />
        </mxCell>
        <mxCell id="ZxcZOkYqdb5yOeNDkM1k-67" value="" style="endArrow=none;dashed=1;html=1;dashPattern=1 3;strokeWidth=2;rounded=0;entryX=0;entryY=0;entryDx=47.5;entryDy=0;entryPerimeter=0;exitX=0.5;exitY=1;exitDx=0;exitDy=0;" edge="1" parent="1" source="ZxcZOkYqdb5yOeNDkM1k-47" target="ZxcZOkYqdb5yOeNDkM1k-66">
          <mxGeometry width="50" height="50" relative="1" as="geometry">
            <mxPoint x="530" y="450" as="sourcePoint" />
            <mxPoint x="645" y="520" as="targetPoint" />
          </mxGeometry>
        </mxCell>
        <mxCell id="ZxcZOkYqdb5yOeNDkM1k-68" value="" style="endArrow=none;dashed=1;html=1;dashPattern=1 3;strokeWidth=2;rounded=0;entryX=0;entryY=0.5;entryDx=0;entryDy=0;entryPerimeter=0;exitX=1;exitY=0.5;exitDx=0;exitDy=0;" edge="1" parent="1" source="ZxcZOkYqdb5yOeNDkM1k-64" target="ZxcZOkYqdb5yOeNDkM1k-66">
          <mxGeometry width="50" height="50" relative="1" as="geometry">
            <mxPoint x="665" y="472.5" as="sourcePoint" />
            <mxPoint x="715" y="422.5" as="targetPoint" />
          </mxGeometry>
        </mxCell>
        <mxCell id="ZxcZOkYqdb5yOeNDkM1k-69" value="Trucks" style="html=1;whiteSpace=wrap;" vertex="1" parent="1">
          <mxGeometry x="720" y="392.5" width="110" height="50" as="geometry" />
        </mxCell>
        <mxCell id="ZxcZOkYqdb5yOeNDkM1k-70" value="" style="endArrow=classic;html=1;rounded=0;entryX=0.5;entryY=0;entryDx=0;entryDy=0;exitX=0.5;exitY=1;exitDx=0;exitDy=0;" edge="1" parent="1" source="ZxcZOkYqdb5yOeNDkM1k-46" target="ZxcZOkYqdb5yOeNDkM1k-69">
          <mxGeometry width="50" height="50" relative="1" as="geometry">
            <mxPoint x="640" y="580" as="sourcePoint" />
            <mxPoint x="755" y="560" as="targetPoint" />
          </mxGeometry>
        </mxCell>
        <mxCell id="ZxcZOkYqdb5yOeNDkM1k-71" value="Find Truck to be modified or deleted" style="shape=note2;boundedLbl=1;whiteSpace=wrap;html=1;size=25;verticalAlign=top;align=center;" vertex="1" parent="1">
          <mxGeometry x="870" y="385" width="105" height="65" as="geometry" />
        </mxCell>
        <mxCell id="ZxcZOkYqdb5yOeNDkM1k-72" value="" style="endArrow=none;dashed=1;html=1;dashPattern=1 3;strokeWidth=2;rounded=0;entryX=0;entryY=0;entryDx=47.5;entryDy=0;entryPerimeter=0;exitX=0.5;exitY=1;exitDx=0;exitDy=0;" edge="1" parent="1" source="ZxcZOkYqdb5yOeNDkM1k-46" target="ZxcZOkYqdb5yOeNDkM1k-71">
          <mxGeometry width="50" height="50" relative="1" as="geometry">
            <mxPoint x="640" y="580" as="sourcePoint" />
            <mxPoint x="755" y="650" as="targetPoint" />
          </mxGeometry>
        </mxCell>
        <mxCell id="ZxcZOkYqdb5yOeNDkM1k-73" value="" style="endArrow=none;dashed=1;html=1;dashPattern=1 3;strokeWidth=2;rounded=0;entryX=0;entryY=0.5;entryDx=0;entryDy=0;entryPerimeter=0;exitX=1;exitY=0.5;exitDx=0;exitDy=0;" edge="1" parent="1" source="ZxcZOkYqdb5yOeNDkM1k-69" target="ZxcZOkYqdb5yOeNDkM1k-71">
          <mxGeometry width="50" height="50" relative="1" as="geometry">
            <mxPoint x="955" y="480" as="sourcePoint" />
            <mxPoint x="1005" y="430" as="targetPoint" />
          </mxGeometry>
        </mxCell>
        <mxCell id="ZxcZOkYqdb5yOeNDkM1k-74" value="Save Changes&amp;nbsp;" style="rounded=1;whiteSpace=wrap;html=1;arcSize=40;fontColor=#000000;fillColor=#ffffc0;strokeColor=#ff0000;" vertex="1" parent="1">
          <mxGeometry x="301.5" y="580" width="120" height="40" as="geometry" />
        </mxCell>
        <mxCell id="ZxcZOkYqdb5yOeNDkM1k-75" value="" style="edgeStyle=orthogonalEdgeStyle;html=1;verticalAlign=bottom;endArrow=open;endSize=8;strokeColor=#ff0000;rounded=0;" edge="1" parent="1" source="ZxcZOkYqdb5yOeNDkM1k-74" target="ZxcZOkYqdb5yOeNDkM1k-80">
          <mxGeometry relative="1" as="geometry">
            <mxPoint x="361.5" y="680" as="targetPoint" />
          </mxGeometry>
        </mxCell>
        <mxCell id="ZxcZOkYqdb5yOeNDkM1k-76" value="" style="endArrow=classic;html=1;rounded=0;entryX=0.563;entryY=-0.011;entryDx=0;entryDy=0;entryPerimeter=0;exitX=0.5;exitY=1;exitDx=0;exitDy=0;" edge="1" parent="1" source="ZxcZOkYqdb5yOeNDkM1k-54" target="ZxcZOkYqdb5yOeNDkM1k-74">
          <mxGeometry width="50" height="50" relative="1" as="geometry">
            <mxPoint x="370" y="490" as="sourcePoint" />
            <mxPoint x="420" y="440" as="targetPoint" />
          </mxGeometry>
        </mxCell>
        <mxCell id="ZxcZOkYqdb5yOeNDkM1k-77" value="" style="endArrow=classic;html=1;rounded=0;exitX=0.5;exitY=1;exitDx=0;exitDy=0;entryX=0.5;entryY=0;entryDx=0;entryDy=0;" edge="1" parent="1" source="ZxcZOkYqdb5yOeNDkM1k-59" target="ZxcZOkYqdb5yOeNDkM1k-74">
          <mxGeometry width="50" height="50" relative="1" as="geometry">
            <mxPoint x="370" y="490" as="sourcePoint" />
            <mxPoint x="420" y="440" as="targetPoint" />
          </mxGeometry>
        </mxCell>
        <mxCell id="ZxcZOkYqdb5yOeNDkM1k-78" value="" style="endArrow=classic;html=1;rounded=0;exitX=0.5;exitY=1;exitDx=0;exitDy=0;entryX=0.5;entryY=0;entryDx=0;entryDy=0;" edge="1" parent="1" source="ZxcZOkYqdb5yOeNDkM1k-64" target="ZxcZOkYqdb5yOeNDkM1k-74">
          <mxGeometry width="50" height="50" relative="1" as="geometry">
            <mxPoint x="370" y="490" as="sourcePoint" />
            <mxPoint x="420" y="440" as="targetPoint" />
          </mxGeometry>
        </mxCell>
        <mxCell id="ZxcZOkYqdb5yOeNDkM1k-79" value="" style="endArrow=classic;html=1;rounded=0;exitX=0.5;exitY=1;exitDx=0;exitDy=0;entryX=0.5;entryY=0;entryDx=0;entryDy=0;" edge="1" parent="1" source="ZxcZOkYqdb5yOeNDkM1k-69" target="ZxcZOkYqdb5yOeNDkM1k-74">
          <mxGeometry width="50" height="50" relative="1" as="geometry">
            <mxPoint x="370" y="490" as="sourcePoint" />
            <mxPoint x="420" y="440" as="targetPoint" />
          </mxGeometry>
        </mxCell>
        <mxCell id="ZxcZOkYqdb5yOeNDkM1k-80" value="" style="ellipse;html=1;shape=endState;fillColor=strokeColor;" vertex="1" parent="1">
          <mxGeometry x="346.5" y="670" width="30" height="30" as="geometry" />
        </mxCell>
      </root>
    </mxGraphModel>
  </diagram>
</mxfile>
